# xmcd CD database file
#
# Track frame offsets:
#	187
#	42975
#	68600
#	93012
#	120637
#	137362
#	151862
#	162825
#	186125
#	214300
#	223125
#	249737
#
# Disc length: 3731 seconds
#
# Revision: 0
# Processed by: cddbd v1.5.1PL0 Copyright (c) Steve Scherf et al.
# Submitted via: CDex 1.51
#
DISCID=a20e910c
DTITLE=パイヤール室内管弦楽団 - アルビノーニのアダージョ
DYEAR=1990
DGENRE=Classical
TTITLE0=アルビノーニのアダージョ（アルビノーニ）
TTITLE1=G線上のアリア（J．S．バッハ）
TTITLE2=ラールゴ「オンブラ・マイ・フ」（ヘンデル）
TTITLE3=パッヘルベルのカノン（パッヘルベル）
TTITLE4=バディネリとジーグ（コレルリ）
TTITLE5=ポロネーズ〜管弦楽組曲　第２番より（J．S．バッハ）
TTITLE6=ラールゴ〜「四季」：冬より（ヴィヴァルディ）
TTITLE7=アリア〜合奏協奏曲　作品６の１２（ヘンデル）
TTITLE8=アダージョ〜ヴァイオリンとオーボエのための協奏曲より（J．S．バッハ）
TTITLE9=コラール「貧しき者は饗せられん」BWV75（j．s．バッハ）
TTITLE10=コラール「我をあわれみたまえ」BWV721（j．s．バッハ）
TTITLE11=精霊の踊り（グルック）
EXTD=YEAR: 1990
EXTT0=
EXTT1=
EXTT2=
EXTT3=
EXTT4=
EXTT5=
EXTT6=
EXTT7=
EXTT8=
EXTT9=
EXTT10=
EXTT11=
PLAYORDER=
